<svg viewBox="0 0 330.0000305175781 200.00001525878906" xmlns="http://www.w3.org/2000/svg"><g><g><g><g><g><line x1="90" y1="177" x2="85" y2="177" style="visibility: inherit;" fill="rgb(0, 0, 0)" stroke="rgb(204, 204, 204)" stroke-width="1px"></line><line x1="90" y1="154.875" x2="85" y2="154.875" style="visibility: inherit;" fill="rgb(0, 0, 0)" stroke="rgb(204, 204, 204)" stroke-width="1px"></line><line x1="90" y1="132.75" x2="85" y2="132.75" style="visibility: inherit;" fill="rgb(0, 0, 0)" stroke="rgb(204, 204, 204)" stroke-width="1px"></line><line x1="90" y1="110.625" x2="85" y2="110.625" style="visibility: inherit;" fill="rgb(0, 0, 0)" stroke="rgb(204, 204, 204)" stroke-width="1px"></line><line x1="90" y1="88.5" x2="85" y2="88.5" style="visibility: inherit;" fill="rgb(0, 0, 0)" stroke="rgb(204, 204, 204)" stroke-width="1px"></line><line x1="90" y1="66.375" x2="85" y2="66.375" style="visibility: inherit;" fill="rgb(0, 0, 0)" stroke="rgb(204, 204, 204)" stroke-width="1px"></line><line x1="90" y1="44.25" x2="85" y2="44.25" style="visibility: inherit;" fill="rgb(0, 0, 0)" stroke="rgb(204, 204, 204)" stroke-width="1px"></line><line x1="90" y1="22.125" x2="85" y2="22.125" style="visibility: inherit;" fill="rgb(0, 0, 0)" stroke="rgb(204, 204, 204)" stroke-width="1px"></line><line x1="90" y1="0" x2="85" y2="0" style="visibility: inherit;" fill="rgb(0, 0, 0)" stroke="rgb(204, 204, 204)" stroke-width="1px"></line></g><g transform="translate(80, 0)"><text x="0" y="177" dx="0em" dy="0.3em" style="text-anchor: end; visibility: hidden; font-family: Roboto, sans-serif; font-size: 12px; font-weight: 200;" fill="rgb(33, 33, 33)" stroke="none" stroke-width="1px">-1.82e+3</text><text x="0" y="154.875" dx="0em" dy="0.3em" style="text-anchor: end; visibility: inherit; font-family: Roboto, sans-serif; font-size: 12px; font-weight: 200;" fill="rgb(33, 33, 33)" stroke="none" stroke-width="1px">-1.82e+3</text><text x="0" y="132.75" dx="0em" dy="0.3em" style="text-anchor: end; visibility: hidden; font-family: Roboto, sans-serif; font-size: 12px; font-weight: 200;" fill="rgb(33, 33, 33)" stroke="none" stroke-width="1px">-1.81e+3</text><text x="0" y="110.625" dx="0em" dy="0.3em" style="text-anchor: end; visibility: inherit; font-family: Roboto, sans-serif; font-size: 12px; font-weight: 200;" fill="rgb(33, 33, 33)" stroke="none" stroke-width="1px">-1.81e+3</text><text x="0" y="88.5" dx="0em" dy="0.3em" style="text-anchor: end; visibility: hidden; font-family: Roboto, sans-serif; font-size: 12px; font-weight: 200;" fill="rgb(33, 33, 33)" stroke="none" stroke-width="1px">-1.8e+3</text><text x="0" y="66.375" dx="0em" dy="0.3em" style="text-anchor: end; visibility: inherit; font-family: Roboto, sans-serif; font-size: 12px; font-weight: 200;" fill="rgb(33, 33, 33)" stroke="none" stroke-width="1px">-1.8e+3</text><text x="0" y="44.25" dx="0em" dy="0.3em" style="text-anchor: end; visibility: hidden; font-family: Roboto, sans-serif; font-size: 12px; font-weight: 200;" fill="rgb(33, 33, 33)" stroke="none" stroke-width="1px">-1.79e+3</text><text x="0" y="22.125" dx="0em" dy="0.3em" style="text-anchor: end; visibility: inherit; font-family: Roboto, sans-serif; font-size: 12px; font-weight: 200;" fill="rgb(33, 33, 33)" stroke="none" stroke-width="1px">-1.79e+3</text><text x="0" y="0" dx="0em" dy="0.3em" style="text-anchor: end; visibility: hidden; font-family: Roboto, sans-serif; font-size: 12px; font-weight: 200;" fill="rgb(33, 33, 33)" stroke="none" stroke-width="1px">-1.78e+3</text></g><line x1="90" y1="0" x2="90" y2="177" fill="rgb(0, 0, 0)" stroke="rgb(204, 204, 204)" stroke-width="1px"></line></g></g><g transform="translate(90, 0)" clip-path="url(#clip_0)"><clipPath id="clip_0"><rect width="240" height="177"></rect></clipPath><g><g><g><line x1="0" y1="0" x2="0" y2="177" fill="rgb(0, 0, 0)" stroke="rgb(66, 66, 66)" stroke-width="1px" opacity="0.25"></line><line x1="26.666666666666664" y1="0" x2="26.666666666666664" y2="177" fill="rgb(0, 0, 0)" stroke="rgb(66, 66, 66)" stroke-width="1px" opacity="0.25"></line><line x1="53.33333333333333" y1="0" x2="53.33333333333333" y2="177" fill="rgb(0, 0, 0)" stroke="rgb(66, 66, 66)" stroke-width="1px" opacity="0.25"></line><line x1="80" y1="0" x2="80" y2="177" fill="rgb(0, 0, 0)" stroke="rgb(66, 66, 66)" stroke-width="1px" opacity="0.25"></line><line x1="106.66666666666666" y1="0" x2="106.66666666666666" y2="177" fill="rgb(0, 0, 0)" stroke="rgb(66, 66, 66)" stroke-width="1px" opacity="0.25"></line><line x1="133.33333333333334" y1="0" x2="133.33333333333334" y2="177" fill="rgb(0, 0, 0)" stroke="rgb(66, 66, 66)" stroke-width="1px" opacity="0.25"></line><line x1="160" y1="0" x2="160" y2="177" fill="rgb(0, 0, 0)" stroke="rgb(66, 66, 66)" stroke-width="1px" opacity="0.25"></line><line x1="186.66666666666666" y1="0" x2="186.66666666666666" y2="177" fill="rgb(0, 0, 0)" stroke="rgb(66, 66, 66)" stroke-width="1px" opacity="0.25"></line><line x1="213.33333333333331" y1="0" x2="213.33333333333331" y2="177" fill="rgb(0, 0, 0)" stroke="rgb(66, 66, 66)" stroke-width="1px" opacity="0.25"></line><line x1="240" y1="0" x2="240" y2="177" fill="rgb(0, 0, 0)" stroke="rgb(66, 66, 66)" stroke-width="1px" opacity="0.25"></line></g><g><line x1="0" y1="177" x2="240" y2="177" fill="rgb(0, 0, 0)" stroke="rgb(66, 66, 66)" stroke-width="1px" opacity="0.25"></line><line x1="0" y1="154.875" x2="240" y2="154.875" fill="rgb(0, 0, 0)" stroke="rgb(66, 66, 66)" stroke-width="1px" opacity="0.25"></line><line x1="0" y1="132.75" x2="240" y2="132.75" fill="rgb(0, 0, 0)" stroke="rgb(66, 66, 66)" stroke-width="1px" opacity="0.25"></line><line x1="0" y1="110.625" x2="240" y2="110.625" fill="rgb(0, 0, 0)" stroke="rgb(66, 66, 66)" stroke-width="1px" opacity="0.25"></line><line x1="0" y1="88.5" x2="240" y2="88.5" fill="rgb(0, 0, 0)" stroke="rgb(66, 66, 66)" stroke-width="1px" opacity="0.25"></line><line x1="0" y1="66.375" x2="240" y2="66.375" fill="rgb(0, 0, 0)" stroke="rgb(66, 66, 66)" stroke-width="1px" opacity="0.25"></line><line x1="0" y1="44.25" x2="240" y2="44.25" fill="rgb(0, 0, 0)" stroke="rgb(66, 66, 66)" stroke-width="1px" opacity="0.25"></line><line x1="0" y1="22.125" x2="240" y2="22.125" fill="rgb(0, 0, 0)" stroke="rgb(66, 66, 66)" stroke-width="1px" opacity="0.25"></line><line x1="0" y1="0" x2="240" y2="0" fill="rgb(0, 0, 0)" stroke="rgb(66, 66, 66)" stroke-width="1px" opacity="0.25"></line></g></g></g><g><g><line x1="0" y1="-7876.5" x2="240" y2="-7876.5" fill="rgb(0, 0, 0)" stroke="rgb(153, 153, 153)" stroke-width="1.5px"></line></g></g><g><g><line x1="26.666666666666664" y1="0" x2="26.666666666666664" y2="177" fill="rgb(0, 0, 0)" stroke="rgb(153, 153, 153)" stroke-width="1.5px"></line></g></g><g><g><g><g><g><path stroke="rgb(255, 112, 67)" stroke-width="2px" d="M26.895999999999997,156.3274932861328L26.912,156.01352462768554L27.050666666666665,153.07192009127814L27.173333333333332,149.48914270961856L27.514666666666663,145.0168902681061L27.562666666666665,141.93354442280858L27.893333333333334,139.31578285092394L27.919999999999998,137.36759976654113L28.032,135.94701512413124L28.128,134.40174874034673L28.314666666666668,133.1344961226117L28.325333333333333,132.8199091263863L28.368,132.51693184655483L28.917333333333335,130.47276009068264L29.12533333333333,128.68892572071118L29.200000000000003,127.43459092626377L29.530666666666665,125.65379174899331L29.674666666666667,124.64514502338695L29.759999999999998,123.56184277929901L29.797333333333334,123.14504575108514L30.053333333333335,122.12231385292203L30.122666666666664,121.58388049238022L30.197333333333333,121.47732330352268L30.250666666666664,120.51304468643096L30.48,119.53173515478115L30.522666666666666,118.88158881196178L30.784,117.6067168749365L30.85866666666667,117.09070095065825L30.949333333333332,116.35479627580882L30.981333333333335,116.08761769665368L31.130666666666666,116.02950908684737L31.711999999999996,113.88023701933675L31.85066666666667,112.27954106094812L32.032000000000004,111.42434692651935L32.08,109.95687375568455L32.35733333333334,108.81214304043114L32.559999999999995,108.30982366294661L32.965333333333334,106.83671450479845L33.397333333333336,104.99438709721117L33.690666666666665,103.59924822325921L33.70666666666667,103.15410581836338L33.78133333333333,102.14073375420274L33.80266666666667,101.85118952001706L34.05866666666667,100.62955038172102L34.096000000000004,100.44429028760665L34.330666666666666,99.44575752211058L34.49066666666667,98.45275236479263L34.79466666666667,97.38203960244557L34.94933333333333,96.7149805973958L35.034666666666666,95.37097566311452L35.120000000000005,94.68945795645884L35.41866666666667,93.82637985199749L35.690666666666665,92.74806179791564L35.78666666666667,91.84049723499838L35.83466666666667,91.20132226677967L35.90933333333333,91.41934072335006L35.92,91.18802777385298L35.936,89.83387745532721L36.17066666666666,88.73963921733694L36.50666666666667,87.83807918469905L36.55466666666667,88.11408286238152L36.624,88.5992443951631L36.64,88.22853589491015L36.68266666666667,87.95187861702462L36.896,87.33841476787121L36.986666666666665,86.29340652673876L37.056000000000004,86.04473043948096L37.343999999999994,84.86921863478211L37.53066666666667,83.8421915812597L37.74933333333333,83.75144409914684L37.85066666666667,82.40773901808166L38.336,80.60697129170877L38.4,80.25853702307255L38.464,79.4185682587646L38.57066666666667,79.10213094549273L38.60266666666667,78.21589282510753L38.70933333333333,77.41579790209597L38.736,77.98257322367947L38.976,77.35791063342724L39.04,76.47147245427529L39.22666666666667,76.81056535733059L39.413333333333334,77.36469370658546L39.41866666666667,76.1685147102802L39.664,73.7572941289021L39.75466666666667,74.35928492460768L39.76533333333333,75.16881314226502L39.792,75.26237309043795L39.925333333333334,75.01688308277899L39.93066666666667,75.37280318951095L39.99466666666667,75.02696438440948L40.02133333333333,74.84301212673945L40.176,73.83121987370093L40.256,71.19227440468951L40.288,71.37523402757954L40.992000000000004,70.60368289701687L41.285333333333334,69.95904201360035L41.36,69.77406168276958L41.54666666666667,69.41243871864532L42.117333333333335,67.34033554563992L42.496,67.67520840746188L42.730666666666664,65.23236747611814L42.87466666666666,63.822407546218365L42.89066666666666,63.44853241835522L43.199999999999996,62.10499347445103L43.53066666666667,60.98665697334168L43.71733333333333,59.349198773848755L43.898666666666664,58.32891257485613L43.973333333333336,62.04516004491449L43.984,62.495617755464714L43.989333333333335,62.20174809468507L44.29866666666667,60.36886013610792L44.848,59.39963029064852L45.06666666666666,59.641297949779535L45.232,58.56834322299272L45.872,58.0980701427802L45.968,56.7217559040277L45.97866666666667,54.8208306420262L46.245333333333335,54.06983969380887L46.544000000000004,55.493388191286115L46.624,54.95779072727168L46.90133333333333,53.36402868440989L47.013333333333335,52.85934616572465L47.050666666666665,52.95279886154376L47.62133333333333,52.89522057669127L47.77066666666666,53.27530129132686L47.92,53.36420421229551L48.19733333333333,52.26440997854819L48.528,49.922903799629104L48.586666666666666,49.41488363719893L49.050666666666665,48.24494946942854L49.08266666666667,46.23795967189149L49.216,47.80932975821343L49.242666666666665,49.70866914399016L49.408,49.04478278522141L49.626666666666665,48.617930462148074L49.696000000000005,47.41912985931929L49.70666666666666,48.349717661685716L50.138666666666666,48.22055325326163L50.629333333333335,47.2643204773474L50.720000000000006,46.84333838015865L50.831999999999994,46.901665869891865L51.35466666666667,45.94254981490347L51.54666666666667,45.00754893191123L51.568000000000005,45.488195130631524L51.61066666666667,45.06508260572265L52.00533333333333,44.290715823199015L52.208,42.3575056657934L52.28266666666667,44.81817161236646L52.48533333333333,45.33459681507593L52.54933333333333,44.23225467107661L52.77333333333333,44.426896747958665L53.136,45.10674595893226L53.184,44.53415499723415L53.2,43.11784041044947L53.605333333333334,43.54348012517533L53.616,43.13533001846377L53.903999999999996,43.06782887045365L54.05333333333333,44.589258113288224L54.61333333333334,43.78677996562999L55.093333333333334,43.51790049890884L55.17866666666667,42.155470523953866L55.25333333333333,40.84171249015377L55.57866666666666,39.18595889057684L56.08533333333333,41.97838807848753L56.096,41.6284574076392L56.266666666666666,40.57195847778724L56.46933333333333,39.53963626831297L56.879999999999995,40.11010988598717L56.96,37.91514918354563L57.19466666666667,41.393291170283035L57.647999999999996,38.559092377952076L57.73866666666667,39.572342633802904L57.754666666666665,38.81541363692296L57.936,38.27007703957504L57.946666666666665,38.87562532530772L57.984,39.65747114245086L58.176,39.35976588859532L58.288000000000004,39.098822179641374L58.416000000000004,37.0927442355192L58.61866666666666,39.201581599904856L58.72533333333334,36.70649827634917L59.31733333333333,36.011911661121594L59.370666666666665,36.392653588469436L59.63733333333334,38.41356944800354L59.73866666666667,36.50377155161503L59.808,37.3912753821415L59.839999999999996,37.518656830847995L59.90933333333333,36.272339118039454L60.21333333333333,37.376436918089695L60.336000000000006,35.64382113522902L60.36266666666667,36.90641841355948L60.49066666666667,36.77465549149486L60.67733333333334,36.47067464255236L60.80533333333334,36.399775390999565L61.31733333333333,37.127505615459114L61.44533333333333,33.75060615247859L61.733333333333334,34.93540031258051L61.888000000000005,35.219765578173906L62.176,36.02907126096643L62.384,39.87704969017342L62.400000000000006,36.16239192347966L62.464,34.10688095486904L62.629333333333335,33.641467440108514L63.184,31.795752046096766L63.22666666666666,34.40657598351783L63.306666666666665,35.375436068625916L63.824000000000005,33.24687174859702L63.962666666666664,33.74275805892323L64.08,32.838539356837714L64.57066666666665,33.52649519613347L64.61333333333333,30.376581932132808L64.832,31.619784608498435L65.15733333333333,31.71513614595925L65.32266666666668,34.46148525202888L65.664,33.252274451999185L65.76,34.438702317684275L65.81333333333333,32.17599971092267L65.81866666666667,32.664216769913374L65.92,32.168295686947616L66.04266666666668,35.21801354498148L66.144,33.4665759492537L66.40533333333333,33.34781544259889L66.45866666666666,31.25333159954271L66.47466666666666,27.728828793710008L66.55466666666666,30.593980625835584L66.73066666666666,30.328735787611123L67.44000000000001,29.66486232217605L67.66933333333334,28.768509678461875L67.70133333333334,29.333923189889234L68.05866666666667,29.29484243932437L68.208,29.686453803438773L68.26133333333334,32.13867403987496L68.44800000000001,33.012155839940796L68.80533333333334,31.66231791802597L68.976,30.598323368002887L69.29066666666667,29.65808459697321L69.47733333333333,30.761958912481006L69.536,31.251431939285666L69.6,28.828753450680168L69.69066666666667,31.01842516611103L70.29866666666666,29.707909347713283L70.48533333333333,28.728006106675252L70.51733333333333,29.39518257025555L70.88533333333334,28.688158126137502L71.12,28.15634336201083L71.27466666666666,30.630751817987345L71.30133333333333,32.16617203805764L71.34933333333333,29.755494238460173L71.82933333333334,31.009461093857162L71.84533333333333,30.277262349674068L71.99466666666667,30.210870349256965L72.048,31.041558830647723L72.35733333333333,29.45667846245093L72.54400000000001,27.709120602860587L72.72,29.535755564841345L72.72533333333334,28.23277291898212L73.04533333333333,27.73748479631095L73.70666666666666,28.9047967859903L73.72266666666667,27.96719936065709L74.02133333333333,27.520667516784883L74.16,26.47340392804027L74.176,28.392445677136877L74.288,29.0821409902667L74.32533333333333,28.799366381269188L74.63466666666667,28.7835395064959L74.66666666666667,29.60135417264813L74.96533333333333,27.205205814135766L75.008,26.298603224810577L75.87733333333334,26.566395821605106L75.91466666666666,29.30061508085368L76.05866666666667,28.196479888355157L76.35733333333334,28.246147210356852L76.528,28.430001558636782L76.86933333333333,27.5122794996346L76.88533333333334,23.600547631422387L76.99199999999999,23.556539516353034L77.02933333333333,25.80550940317159L77.168,23.319963356746108L77.54133333333333,21.39153734021953L77.58933333333334,24.503483195147155L77.62666666666667,25.25489387216681L77.696,23.273070600643642L77.81333333333333,23.510866286167236L78.016,26.752124019747214L78.176,27.54331054466042L78.29866666666666,27.371125486951705L78.39466666666667,26.332687499202073L78.768,24.98062324170874L79.16799999999999,25.36897453096254L79.38133333333334,25.207019484202128L79.50933333333334,26.74955959091149L79.856,28.248302649078546L80.272,28.794283103119014L80.29866666666666,29.38763065288783L80.31466666666667,29.574244651497516L80.45333333333333,28.610860267460815L80.90133333333333,29.391010789382946L80.992,28.150463407223718L81.37066666666666,26.274821501364883L81.47733333333333,26.104441240662666L81.51466666666667,27.19661738111656L82.11733333333333,29.145284881795135L82.13333333333333,31.581055206420835L82.24533333333333,29.060449530102105L82.55999999999999,28.24770282353081L82.61333333333333,27.6656346335712L82.63466666666667,28.86341520397086L82.78933333333333,27.039437061836445L82.96533333333333,26.022833379679184L83.24266666666666,27.242072830542682L83.33333333333333,24.46948320027873L83.408,24.970463113526208L83.49333333333334,24.08140018256926L83.584,24.252764670088027L83.79733333333333,22.85112657549071L84.04266666666666,24.122389812482325L84.048,24.36486455155169L84.16533333333334,26.766710478977295L84.20266666666667,24.650532879183643L84.35199999999999,27.667977198213308L84.40533333333333,27.610998721272146L84.49066666666667,24.43609874448203L84.53866666666667,25.671007391219675L84.61333333333333,26.25552191520076L84.816,25.39043595185462L84.832,23.751738377752993L85.01333333333334,27.357728817667017L85.03466666666667,27.667706138256257L85.15733333333333,26.656695460297314L85.18933333333334,26.709517764459633L85.19999999999999,24.71323018992537L85.41333333333333,25.54797595575191L85.44533333333334,24.504178639857784L85.51466666666667,25.162403424149055L85.54133333333333,25.53465152714547L85.88266666666667,24.65002187331895L85.98400000000001,24.533655702116775L86.032,26.17182550134858L86.27199999999999,25.61786092580956L86.39466666666667,23.4876098660326L86.40533333333335,21.946724855166444L86.41066666666667,22.647646729506512L86.72533333333332,25.777864160750177L87.57333333333332,26.418377431996774L87.856,26.44985214279142L87.96266666666666,25.771064850127573L88.128,28.092038324139438L88.176,28.570453707374284L88.26666666666667,27.079292488096442L88.35733333333334,24.659396781920563L88.52266666666667,25.162194465637313L88.79466666666667,26.408506864929272L88.91733333333333,27.15283727325403L88.992,25.320387666686585L89.38666666666667,27.071456232824247L89.99466666666667,27.479089560006642L90.50666666666667,23.550600708660035L90.53333333333333,22.298893140039375L90.72533333333332,25.940026801991777L90.89066666666666,23.20708004603881L91.408,26.605718974888518L91.54666666666667,25.644631336105576L91.568,26.81399559853775L91.65333333333334,26.823559712637866L91.87733333333334,26.997180261176275L92.21866666666666,24.877401174283293L92.23466666666667,24.772281769023095L92.32,25.01278068250842L92.832,23.03575922981794L93.11466666666666,22.941536104296823L93.62133333333333,22.991305939921837L94.25066666666667,24.52151940379646L94.39999999999999,24.19554836102766L94.71466666666667,23.999749670913687L94.80000000000001,23.460296579892955L94.96533333333333,22.044418914732255L95.34933333333333,22.424299053917878L95.45066666666668,21.29080501828782L95.68,20.819642923081474L95.78666666666668,23.323744982364303L96.09599999999999,25.418006755043976L96.18666666666667,27.690498877244742L96.33066666666667,25.13436890642417L96.44266666666667,22.31899658799552L96.50666666666666,23.568033694984216L96.58666666666666,22.290123195506148L96.608,22.43127972785077L96.69866666666667,21.831265395303816L96.89066666666668,21.4926471766354L97.104,21.157244800122072L97.28,24.13020625507385L97.86666666666667,24.713312962028482L98.14933333333333,23.91241770885771L98.17066666666666,24.55736029328358L98.27733333333333,25.530292640814103L98.53866666666666,28.47261161964471L98.69333333333333,24.749101639756184L98.91733333333333,23.17118339596267L99.18933333333332,26.100628738749286L99.312,22.053940475671247L99.62666666666667,21.076152127198824L99.64266666666666,22.15879308295991L99.98933333333333,21.32747189469721L100.144,21.37877927939646L100.32533333333333,22.30385448169997L100.512,23.591358099176233L100.63466666666667,24.315029703255547L100.72,23.64730395476583L101.00266666666667,22.988687548640954L101.10933333333332,19.284922734263304L101.17866666666667,18.740836453057973L101.21066666666667,20.600524821053327L101.328,19.20350825200721L101.76533333333334,21.64472458011077L102.51733333333334,22.18707522658169L102.86933333333334,22.935323749230463L102.90666666666667,23.54480875149161L102.95466666666667,23.350892819254128L103.04533333333333,22.529092820458736L103.10933333333334,20.924577274306493L103.14133333333334,20.135799831380773L103.456,19.105951334375135L103.72266666666667,20.725389648281528L103.97333333333333,22.835928369046847L104.16533333333332,23.024522109318127L104.29333333333332,21.544419076137743L104.30933333333334,23.03306624060432L104.70933333333333,21.440433006080745L104.74133333333333,19.362614295835748L104.90133333333334,22.719608372423522L104.94933333333333,23.101653939470552L104.97066666666666,25.0252587211046L105.00266666666667,21.593237508052788L105.49333333333333,23.205175903268973L105.49866666666667,20.92143317867972L105.54133333333334,22.33539408689534L105.56266666666666,21.357161745105948L105.65333333333334,20.675586109562758L105.99466666666667,20.95286143136245L106.096,20.524617249441867L106.27733333333333,22.35701400200888L106.40533333333333,21.647776516440302L106.816,23.131163468458325L107.152,23.529865073261888L107.39733333333334,23.06277133887862L107.632,22.86483565488986L107.73333333333333,24.648521754261836L108.09066666666666,22.253059585760035L108.4,22.53673565379936L108.52266666666667,22.544460825872363L108.95466666666667,21.499670880289244L109.104,21.90191190317335L109.19466666666666,22.601313157529418L109.20533333333333,21.923994681627633L109.376,25.148566730852174L109.54133333333334,27.36268129827633L109.856,26.53741956998183L110.61866666666667,23.900415609175987L110.74666666666667,21.335768164333523L110.79466666666667,20.393965781412213L110.82666666666667,22.373907545018596L111.072,21.015553023105717L111.088,21.3424409447232L111.18933333333332,20.47964181292768L111.29066666666667,19.769881035022237L111.89333333333333,19.479713044842057L111.968,21.41029608862339L112.512,20.88960904965841L112.624,20.401320361434855L113.008,20.644186992251946L113.06133333333334,19.647574207070114L113.33333333333333,21.741769621897923L113.71733333333333,22.173784917669607L113.83466666666666,20.045049759195308L113.92533333333333,21.261192453173024L114.17066666666666,21.254962542216525L114.35199999999999,22.164312974548864L114.69866666666667,18.81622572418285L114.98666666666666,18.083666098572614L115.12533333333333,19.209733350549413L115.152,17.910976729080055L115.53066666666668,17.75463657455701L115.72266666666667,16.532543907625623L115.98400000000001,16.523320289887472L116.31466666666667,15.854684312603766L116.32000000000001,17.51151664224995L116.50133333333332,21.404336743162062L116.57600000000001,21.868478510740594L116.80000000000001,19.755130075194757L117.69066666666667,20.928217205273498L117.856,22.172014551679737L118.03733333333334,24.015900381398865L118.36266666666667,22.491647162433274L118.416,19.96633473300664L118.61333333333333,20.066012998006713L118.656,16.274255015600893L118.78933333333333,18.999795929282413L118.88533333333334,19.340462274366516L118.896,22.335118429072843L119.01866666666668,18.9712126590058L119.024,20.763165827825347L119.02933333333333,20.977104818960427L119.04533333333333,25.14133613356416L119.14666666666668,25.18667912154394L119.33333333333334,23.86585879128514L119.49866666666668,19.417339981801724L119.61066666666666,19.073514340643143L119.70666666666666,19.146806358292324L119.76,16.651808180210374L120.23466666666666,19.937395943281672L120.30933333333334,21.643421452687946L120.41600000000001,20.80520936575401L120.464,23.709186410468625L120.50133333333333,24.061846074796208L120.50666666666666,22.480755105816016L120.66133333333332,21.766530456068146L120.71466666666666,22.841156066609237L120.82133333333333,22.320263708324504L121.18933333333334,22.83417482655701L121.45066666666666,22.119024183043784L121.456,18.81065889459189L121.62666666666667,22.157462231285585L121.82933333333332,23.747243452051798L122.42133333333334,23.42071423529358L122.55466666666666,21.8052532482074L122.57066666666667,23.188918550486946L122.61866666666666,19.407221979902133L122.76799999999999,21.27259734809774L122.95466666666668,22.790461485030512L123.01866666666668,21.74277176406519L123.22666666666667,22.35199118343911L123.36,22.72162805967305L123.45066666666668,21.5191133104142L123.81333333333332,22.163779997967467L123.93066666666668,20.76156633862444L124.08,20.66846934418988L124.368,19.728259340888734L125.07733333333334,19.16110843656469L125.08266666666665,19.977626976001716L125.58933333333334,20.678633070367468L125.82933333333334,17.90882901214315L126.47466666666666,18.665572065488817L126.512,18.054852272496206L127.17866666666667,18.789484849825648L127.43466666666666,19.28644115403541L127.64800000000001,20.97520575687396L127.78133333333334,21.85342423537439L127.88266666666667,19.61213754903713L127.90933333333332,18.773388486453733L128.03199999999998,16.067578013747237L128.14933333333332,17.02735833168645L128.26133333333334,20.122321981433743L128.62400000000002,21.339101196673546L128.90666666666667,24.819237085191425L129.216,22.664244887833817L129.45066666666665,22.654240292075897L129.472,22.285681382277794L129.60533333333333,21.228160538350252L130.592,20.11268855933887L130.672,20.32710898521249L130.688,20.61543287159624L130.80533333333332,19.96111641241108L130.83733333333333,18.555616380649163L131.09333333333333,18.15848945729494L131.17333333333335,19.274937424376162L131.38666666666666,20.59602446634404L131.41866666666667,20.622296076290404L131.49333333333334,21.773045614524634L131.55200000000002,22.602856909730008L131.6,20.703724643884875L131.84533333333334,21.350882247267627L131.904,22.97549761007913L131.93599999999998,21.271499737922277L132.25066666666666,19.05318426658068L132.39466666666667,21.34235489588592L132.5173333333333,21.591025730500895L132.89066666666668,19.002691610175347L133.008,19.6414489504806L133.184,16.785032944506916L133.27466666666666,17.703496573344374L133.312,19.31501908658494L133.52533333333335,20.750360328904094L133.59466666666668,22.36951917585889L133.62133333333333,20.66916145668641L133.65333333333334,22.289470506824337L133.66933333333333,17.506779227921925L134.07466666666667,20.010471345346502L134.07999999999998,20.467366791582897L134.09066666666666,22.745285797605177L134.31466666666668,21.37104354887601L134.33066666666667,21.255189605888113L134.496,21.112431390486393L134.64000000000001,20.215886568667045L134.656,22.234002156044383L134.68266666666668,20.17192717253267L134.98133333333334,20.337156547659433L135.06133333333332,20.665970686408762L135.10933333333332,20.771215712626308L135.11999999999998,23.849974300621852L135.38133333333332,20.762317344044575L135.45600000000002,19.70592067986466L135.68533333333332,17.509288491903376L135.92533333333333,17.18455747014263L136.144,22.2791927340379L136.21333333333334,20.097059097453794L136.21866666666665,17.38573667917599L136.32533333333333,16.69428624578684L136.336,14.816227509190462L136.36266666666666,16.808066583638478L136.42133333333334,17.055943465808078L137.01333333333332,20.36245157753092L137.12533333333332,17.839684081284382L137.488,19.723853173379993L137.49333333333334,19.778569716527393L137.50933333333333,20.338164779134786L137.51466666666667,21.19398895537109L137.72266666666667,20.610308168143924L137.77066666666667,16.88603719580844L137.89866666666666,19.784517825297954L138.07466666666667,19.329903810413555L138.208,22.20929970812353L138.4,18.028006582685812L138.60266666666666,18.415790766017132L138.816,18.35915097328175L138.85866666666666,18.24414292771864L139.0293333333333,18.78076676249117L139.09866666666665,18.608817723509915L139.44,19.178040878246378L139.78666666666666,20.93803790585408L139.90933333333334,22.646766835309116L140.35733333333334,25.856199749622377L140.37333333333333,24.90020788688259L140.39999999999998,22.76209006416061L140.75733333333332,22.899843149824484L140.85333333333332,21.717005499269085L141.25333333333336,22.021509451904407L141.46133333333333,18.68862710669032L141.46666666666667,20.94839232846772L142.304,20.82982763340835L142.528,18.805466160123146L142.53333333333333,18.0895260339649L142.88000000000002,20.57229472194124L142.912,20.006966921055565L143.01866666666666,18.0872587659142L143.05066666666667,17.871425083767676L143.16266666666667,19.91618146627622L143.19466666666665,21.584887102421185L143.51466666666667,20.90015955637439L143.82933333333332,20.5100652162471L144,17.979243475451582L144.03733333333332,18.728778995427817L145.17866666666666,18.78180597147623L145.312,22.685065028198252L145.38133333333334,23.62173725910705L145.52533333333332,20.325693722651927L145.56266666666667,20.31252560859116L145.62133333333335,16.596310531170325L145.648,15.029467226904508L145.6906666666667,18.55541349043959L145.76533333333333,18.94635478371727L145.91466666666665,21.3156363565585L146.28266666666667,19.52281443112259L146.29866666666666,18.708127135235856L146.52266666666668,19.02458697450068L146.70933333333332,18.1782177608727L146.90666666666667,17.911308097930664L147.392,20.44937519078924L147.47733333333332,17.203672966036045L148.048,20.629558515949142L148.08533333333335,17.771352052928258L148.14933333333335,17.361889600896987L148.42133333333334,16.723839082804822L148.48000000000002,15.791124738745793L148.48533333333333,18.620683144028717L148.96533333333332,21.557763890323486L148.9813333333333,19.441007211146818L149.76533333333333,21.785711504421663L149.78666666666666,19.066135154605718L149.792,19.218433534170074L149.88266666666667,19.996249329486027L149.96266666666665,17.25330135550451L150.016,19.321896584786472L150.07466666666667,19.341425304387514L150.10133333333334,18.894221637711027L150.12800000000001,19.1500718009854L150.14933333333332,20.230714467309994L150.18133333333333,21.429200164761184L150.30933333333334,23.533264727762756L150.36266666666668,20.777120701892038L150.50133333333335,20.14671553636959L150.512,20.637051538618422L150.74133333333333,18.783788540357946L150.864,19.190763846871434L151.136,19.692929987810963L151.26399999999998,19.45990227979535L151.36533333333333,17.581415000689717L151.44,16.12849743791383L151.616,17.891004712748085L152.21866666666668,20.106830610852178L152.48,20.856409157526926L152.80533333333332,19.800835240609906L152.912,18.296535079912218L152.9706666666667,16.647668362400665L153.0773333333333,19.178038273300167L153.39733333333334,18.122932583120317L153.46666666666667,19.94781838776302L153.664,21.934015739689457L153.77066666666667,21.302150166470135L153.82933333333332,19.48188092019457L154.288,22.161772595085296L154.34133333333335,20.20140315666056L155.09333333333333,20.401512060012166L155.29066666666665,18.987303720382286L155.30133333333333,17.708162261526248L155.45600000000002,17.725423479962622L155.664,16.64530291610218L155.92,17.509465685208376L156.17600000000002,15.755397428702956L156.18666666666667,18.414079521674083L156.22933333333333,14.992704304801137L156.38933333333333,18.460542016474825L156.512,19.28418165519639L156.58666666666667,20.673520467727407L156.89066666666668,21.163365210323335L157.40266666666668,19.835276206272525L157.64266666666666,19.716000928841247L157.66400000000002,20.920512422538714L157.984,19.11677766836678L158.22933333333333,20.347506786567337L158.38933333333333,20.20180851529959L158.50666666666666,17.878338527148905L158.54933333333332,18.926000919023707L158.88533333333334,19.51462643032069L159.2,21.196814188270324L159.36,21.213742809836994L159.47733333333335,20.450821369495756L159.65333333333334,17.79331630802597L159.80800000000002,19.331531777002482L160.048,21.058004759560667L160.256,20.43321716237621L160.7146666666667,16.715395385316356L161.104,18.131222094470665L161.23733333333334,18.29190464340075L161.30666666666667,18.24441524697835L161.35466666666667,18.095789773186603L161.776,16.31893504555238L162.09066666666666,18.164938908190607L162.69866666666667,19.228248012883114L162.77866666666665,20.94850032140255L163.056,20.554194186982556L163.20000000000002,18.347750887189534L163.53066666666666,17.172321186610993L163.664,21.53204627641891L164.13866666666667,19.245378888897832L164.33599999999998,20.36697830990139L164.52266666666665,18.47827780625353L164.69866666666667,16.680227181799204L164.91733333333332,20.74416292040705L165.49333333333334,20.253338572557332L165.57866666666666,19.72722287009649L165.69066666666666,23.550268048229164L165.73866666666666,23.58211639534335L165.82399999999998,21.09595806962809L166.16,22.11687659958895L166.1653333333333,20.20147361600337L166.24,22.36082679655574L166.82666666666668,21.526043197074486L166.89600000000002,20.876952822542165L166.95466666666667,20.063148011885282L167.43466666666666,18.862500623537215L167.488,20.938202278419602L167.84533333333331,21.43495994127032L168.06933333333333,19.527428601480942L168.912,20.67729822534089L169.11466666666666,22.075695341455138L169.36,19.122802458779326L169.37066666666666,19.583228594407217L169.584,20.063665183987673L169.58933333333334,18.45574549711116L169.59466666666665,21.672272981859848L169.67999999999998,21.65847365239796L169.7493333333333,22.90531246292356L169.76000000000002,22.143989479707663L170.288,18.284396617512087L171.088,17.61850906425765L171.42933333333332,19.26316232331982L171.46133333333333,16.63065862446024L171.49333333333334,21.3325821863949L171.51466666666667,21.402587641915673L171.52,21.909777682805846L171.92000000000002,17.869251619448733L172.13333333333333,20.570849067372365L172.42666666666668,18.479820231439035L173.008,19.02696440448802L173.06666666666666,21.129140068473255L173.10933333333332,19.169356599677307L173.36533333333333,18.969017524259314L173.49333333333334,17.430350944243486L173.70666666666665,19.117857783342757L173.72266666666667,20.75219538289648L173.888,18.06964120434627L173.94133333333335,20.943662164014015L173.97866666666664,20.074869173409L174.07466666666667,17.894218379045597L174.37866666666667,20.089529074302774L174.48533333333333,19.946984046144763L174.50133333333332,18.381847654249157L174.61333333333332,19.9638058581749L175.072,23.451089911389715L175.55733333333333,17.30643519683403L175.568,18.93569217278791L175.7386666666667,18.153617452110247L175.83466666666666,15.627871154858894L177.344,16.374186071821796L177.48266666666666,18.03668937746788L177.71733333333333,19.131420364762782L178.01066666666665,20.81672575401312L178.34133333333335,21.426245169204734L178.41066666666669,22.499783966757015L178.90133333333333,20.10409645427255L179.05599999999998,19.010442491704353L179.264,18.871076286037848L179.61066666666667,19.982509052872913L180.75733333333335,18.13178570516105L181.17866666666666,17.347176891847027L181.31733333333332,20.71933396713986L181.43466666666666,20.602293739658926L181.536,21.60785451527932L181.64266666666666,22.096460756041786L181.66933333333336,21.016534900889894L181.75466666666668,18.9499001885804L181.81866666666667,14.860677417835745L181.904,15.92056782765497L182.048,16.377168577452167L182.41066666666666,16.567944212878153L182.672,18.28063835389917L182.74133333333333,17.219127641245343L182.78400000000002,18.04130446560658L182.98666666666668,20.283868372722516L183.29066666666668,21.144558084179792L183.67466666666667,20.668803942304535L183.85066666666665,20.225192277492106L183.888,19.788550425089007L183.93599999999998,20.142781133958856L184.2026666666667,19.55069553584366L184.21866666666668,22.672137292209513L184.33066666666667,22.631535549153632L184.39466666666667,23.258824893944904L184.496,17.864549086757165L184.59733333333335,21.107108358304295L185.32266666666666,20.97518420443511L185.75466666666665,20.315896655473757L185.76,18.261165190549484L185.94133333333332,17.41486561823553L186.04266666666666,15.862414243987601L186.288,17.30592388819003L186.67200000000003,19.248894909085493L186.69866666666667,15.814017121232148L186.83733333333333,16.75012047781781L187.08266666666668,17.74758449372154L187.16266666666667,19.182232336857716L187.40266666666668,19.428101609145287L187.6,17.43960998892466L187.82933333333332,17.971141481636046L187.936,14.03704768195017L187.968,18.79980429276366L188.03733333333332,20.256064216283605L188.18666666666667,17.192477641098677L188.416,17.89913282489318L188.62933333333334,15.564414997669878L188.91733333333335,16.047234203679245L188.98666666666665,14.739993354238791L189.12,16.9967560223093L189.15733333333336,17.794663720807065L189.17866666666666,18.44237074225026L189.70666666666665,20.96506355863101L189.72266666666667,17.539877978928196L189.84,16.64460061548192L189.936,18.869602166164555L190.10666666666665,16.50255475672958L190.43733333333333,18.121488908726057L190.512,18.203744175314164L190.60266666666666,18.71201823370331L190.608,17.590525149205966L190.832,19.739863185225893L191.36,18.352427432619905L191.50400000000002,18.145904701759243L192.28266666666667,18.931838475352016L192.56533333333334,17.333285214116863L193.14133333333334,18.078685728079897L193.20000000000002,18.604573497394014L193.856,18.54566646171785L194.17066666666668,19.29377194734282L194.368,19.15385960395296L194.48000000000002,20.899762051433683L194.67733333333334,20.527327933986L194.86933333333332,19.49254544203263L194.87466666666668,18.6236339546721L195.008,19.1024494157718L195.33866666666668,20.417341231494134L195.37066666666666,19.90232734631835L195.45066666666665,19.95241813630644L195.71733333333333,19.424162063423687L195.85600000000002,18.61933488453819L195.94666666666666,22.45491880181727L196.06933333333333,19.02840049984097L196.31466666666668,16.980051774514564L196.66133333333335,17.18290167017848L196.69866666666667,14.731932164216666L196.74133333333333,16.436849728217695L196.99733333333333,14.20241257130602L197.04533333333333,13.029200228330481L197.36,13.090573115513713L197.42933333333335,17.725464474776587L198.2026666666667,17.61848180986614L198.26666666666668,17.678529271466367L198.44266666666667,19.198272348036063L198.45333333333335,16.72698098694684L198.66666666666666,19.3191817562314L199.01333333333332,17.62597316506657L199.408,14.219726965446384L199.65866666666668,16.276018308174287L199.85066666666665,17.645697654826648L200.0053333333333,20.35742103430284L200.16,22.17437571628463L200.22933333333333,18.405691103598706L200.24533333333332,18.96887486723714L200.59733333333332,18.149759978935634L200.61333333333334,16.88845339947136L200.84266666666664,17.118867938120722L201.05066666666664,18.6889757921697L201.10399999999998,16.544775856161003L201.12,19.767953160180966L201.40266666666668,18.332982589467754L202.00533333333334,20.62178784469627L202.10666666666668,19.47122212088047L202.144,19.094176143622434L202.14933333333332,18.245034738907634L202.18666666666667,20.311686370688733L202.53333333333333,17.618656109523428L202.5546666666667,16.34681256219882L202.68266666666668,13.681907117397024L202.74666666666667,19.942524397390926L202.816,18.51032298804393L202.85333333333332,18.296386663920103L203.28533333333334,17.041896939758317L203.46133333333336,15.602982402136249L203.48266666666666,14.100082898313204L203.62666666666667,17.02959807883228L203.63733333333332,17.862119198862068L203.9946666666667,17.315447788848694L204.02666666666667,16.886326778777565L204.11733333333333,16.569868577032153L204.49066666666667,16.60383642942282L204.54399999999998,19.48231772679391L204.63466666666667,19.280383067717374L204.672,21.19757432305211L204.688,20.236939369222497L204.7626666666667,21.316476365674525L204.8213333333333,18.56334407135764L205.54666666666668,18.627232517033327L205.744,17.766737459438552L206.03733333333332,19.531432856522898L206.07466666666667,18.186100924851445L206.42133333333334,17.591293123270233L206.55466666666666,16.47580614740025L206.60266666666666,19.598661178674533L206.66666666666669,19.98649895329926L206.768,17.026201129791865L206.85866666666666,17.936999974749924L206.93866666666668,18.675560580553267L207.14666666666668,18.56060246161342L207.21066666666667,17.177091457436L207.344,17.038391104929538L207.50400000000002,22.14179809069209L207.54133333333334,20.17062084660317L207.85066666666665,20.456504588040232L207.90933333333334,22.399115155168488L208.096,22.166096290367527L208.19733333333332,18.886436338673647L208.23466666666667,21.229126207501658L208.48000000000002,20.695993790907444L208.608,18.585156088996982L208.75733333333335,16.953288477617548L208.77333333333334,19.802613955710747L208.96,20.421083754285817L209.3226666666667,17.031995955696303L209.45600000000002,19.94555499529318L209.63733333333332,20.404649891707166L209.65333333333334,18.943164690884068L209.93066666666667,18.167391734452515L209.936,20.417858136373823L209.97866666666667,20.029035194324102L210.048,21.77186691737551L210.34133333333332,21.237702669956953L210.48533333333333,19.965440205489003L210.80533333333332,20.316543176028375L210.81066666666666,19.55513098374263L210.94933333333336,19.403582740636395L210.96,19.103503404146863" style="fill: none;" fill="none"></path></g></g></g></g><g opacity="0.2"><g><g><g><path stroke="rgb(255, 112, 67)" stroke-width="2px" d="M26.895999999999997,156.3274932861328L26.912,155.82514343261718L27.050666666666665,150.24797973632812L27.173333333333332,145.27579650878906L27.514666666666663,139.17791748046875L27.562666666666665,137.6681671142578L27.893333333333334,135.5723419189453L27.919999999999998,134.52713012695312L28.032,133.8519287109375L28.128,132.10720825195312L28.314666666666668,131.24511108398437L28.325333333333333,132.34974060058593L28.368,132.0634552001953L28.917333333333335,127.41050720214844L29.12533333333333,126.01527099609375L29.200000000000003,125.55397338867188L29.530666666666665,122.9833465576172L29.674666666666667,123.13243103027344L29.759999999999998,121.93705444335937L29.797333333333334,122.51988830566405L30.053333333333335,120.58827209472656L30.122666666666664,120.77624816894532L30.197333333333333,121.31748962402344L30.250666666666664,119.06663818359375L30.48,118.05977783203126L30.522666666666666,117.9063720703125L30.784,115.69441223144531L30.85866666666667,116.31667785644531L30.949333333333332,115.25093994140626L30.981333333333335,115.68684997558593L31.130666666666666,115.94234619140626L31.711999999999996,110.65632934570313L31.85066666666667,109.87849731445313L32.032000000000004,110.14155578613281L32.08,107.7556640625L32.35733333333334,107.09504699707031L32.559999999999995,107.5563446044922L32.965333333333334,104.62705078124999L33.397333333333336,102.23089599609375L33.690666666666665,101.5065399169922L33.70666666666667,102.48639221191407L33.78133333333333,100.6206756591797L33.80266666666667,101.41687316894532L34.05866666666667,98.79709167480469L34.096000000000004,100.16640014648438L34.330666666666666,97.94795837402343L34.49066666666667,96.96324462890625L34.79466666666667,95.77597045898438L34.94933333333333,95.71439208984374L35.034666666666666,93.35496826171875L35.120000000000005,93.66718139648437L35.41866666666667,92.53176269531251L35.690666666666665,91.13058471679688L35.78666666666667,90.47915039062501L35.83466666666667,90.24255981445312L35.90933333333333,91.74636840820312L35.92,90.84105834960938L35.936,87.80265197753907L36.17066666666666,87.09828186035156L36.50666666666667,86.48573913574218L36.55466666666667,88.52808837890625L36.624,89.32698669433593L36.64,87.67247314453125L36.68266666666667,87.53689270019531L36.896,86.41821899414062L36.986666666666665,84.72589416503907L37.056000000000004,85.67171630859376L37.343999999999994,83.10595092773438L37.53066666666667,82.30165100097656L37.74933333333333,83.61532287597656L37.85066666666667,80.39218139648438L38.336,77.90581970214843L38.4,79.73588562011719L38.464,78.15861511230469L38.57066666666667,78.62747497558594L38.60266666666667,76.88653564453125L38.70933333333333,76.21565551757813L38.736,78.83273620605469L38.976,76.42091674804688L39.04,75.14181518554688L39.22666666666667,77.31920471191405L39.413333333333334,78.19588623046876L39.41866666666667,74.37424621582032L39.664,70.14046325683593L39.75466666666667,75.26227111816407L39.76533333333333,76.38310546875L39.792,75.40271301269532L39.925333333333334,74.64864807128906L39.93066666666667,75.90668334960937L39.99466666666667,74.50820617675781L40.02133333333333,74.56708374023437L40.176,72.31353149414063L40.256,67.23385620117188L40.288,71.64967346191406L40.992000000000004,69.44635620117187L41.285333333333334,68.99208068847656L41.36,69.49659118652345L41.54666666666667,68.87000427246095L42.117333333333335,64.23218078613282L42.496,68.17751770019531L42.730666666666664,61.568106079101554L42.87466666666666,61.707467651367196L42.89066666666666,62.88771972656251L43.199999999999996,60.08968505859376L43.53066666666667,59.309152221679696L43.71733333333333,56.89301147460937L43.898666666666664,56.79848327636718L43.973333333333336,67.61953125000001L43.984,63.17130432128907L43.989333333333335,61.76094360351562L44.29866666666667,57.61952819824218L44.848,57.94578552246094L45.06666666666666,60.00379943847656L45.232,56.958911132812496L45.872,57.39266052246093L45.968,54.65728454589844L45.97866666666667,51.96944274902343L46.245333333333335,52.94335327148438L46.544000000000004,57.628710937499996L46.624,54.15439453124999L46.90133333333333,50.97338562011719L47.013333333333335,52.10232238769532L47.050666666666665,53.09297790527343L47.62133333333333,52.80885314941406L47.77066666666666,53.84542236328126L47.92,53.49755859375L48.19733333333333,50.61471862792968L48.528,46.41064453125L48.586666666666666,48.65285339355468L49.050666666666665,46.49004821777344L49.08266666666667,43.22747497558594L49.216,50.16638488769531L49.242666666666665,52.55767822265625L49.408,48.04895324707031L49.626666666666665,47.977651977539054L49.696000000000005,45.62092895507812L49.70666666666666,49.74559936523438L50.138666666666666,48.026806640625004L50.629333333333335,45.82997131347656L50.720000000000006,46.211865234375004L50.831999999999994,46.98915710449218L51.35466666666667,44.503875732421875L51.54666666666667,43.60504760742187L51.568000000000005,46.20916442871094L51.61066666666667,44.43041381835938L52.00533333333333,43.12916564941406L52.208,39.457690429687496L52.28266666666667,48.50917053222656L52.48533333333333,46.10923461914063L52.54933333333333,42.57874145507812L52.77333333333333,44.718859863281246L53.136,46.12651977539063L53.184,43.67526855468749L53.2,40.99336853027343L53.605333333333334,44.18193969726563L53.616,42.52310485839843L53.903999999999996,42.96657714843751L54.05333333333333,46.87140197753906L54.61333333333334,42.58306274414063L55.093333333333334,43.11458129882812L55.17866666666667,40.111825561523446L55.25333333333333,38.87107543945313L55.57866666666666,36.70232849121094L56.08533333333333,46.16703186035157L56.096,41.10356140136719L56.266666666666666,38.98721008300782L56.46933333333333,37.99115295410156L56.879999999999995,40.9658203125L56.96,34.62270812988282L57.19466666666667,46.610504150390625L57.647999999999996,34.30779418945313L57.73866666666667,41.09221801757813L57.754666666666665,37.68002014160157L57.936,37.45207214355469L57.946666666666665,39.783947753906254L57.984,40.83023986816407L58.176,38.9132080078125L58.288000000000004,38.707406616210946L58.416000000000004,34.083627319335946L58.61866666666666,42.364837646484375L58.72533333333334,32.96387329101562L59.31733333333333,34.97003173828125L59.370666666666665,36.96376647949218L59.63733333333334,41.44494323730469L59.73866666666667,33.63907470703124L59.808,38.72253112792969L59.839999999999996,37.709729003906254L59.90933333333333,34.402862548828125L60.21333333333333,39.032583618164054L60.336000000000006,33.04489746093749L60.36266666666667,38.80031433105468L60.49066666666667,36.57701110839844L60.67733333333334,36.01470336914063L60.80533333333334,36.293426513671875L61.31733333333333,38.21910095214844L61.44533333333333,28.685256958007812L61.733333333333334,36.71259155273437L61.888000000000005,35.646313476562504L62.176,37.243029785156246L62.384,45.649017333984375L62.400000000000006,30.590405273437504L62.464,31.023614501953134L62.629333333333335,32.943347167968746L63.184,29.02717895507812L63.22666666666666,38.32281188964844L63.306666666666665,36.828726196289054L63.824000000000005,30.054025268554696L63.962666666666664,34.48658752441406L64.08,31.482211303710933L64.57066666666665,34.55842895507812L64.61333333333333,25.65171203613282L64.832,33.484588623046875L65.15733333333333,31.858163452148446L65.32266666666668,38.58100891113281L65.664,31.43845825195313L65.76,36.21834411621093L65.81333333333333,28.78194580078126L65.81866666666667,33.39654235839844L65.92,31.42441406249999L66.04266666666668,39.792590332031246L66.144,30.83941955566406L66.40533333333333,33.16967468261719L66.45866666666666,28.111605834960933L66.47466666666666,22.44207458496094L66.55466666666666,34.89170837402344L66.73066666666666,29.93086853027343L67.44000000000001,28.669052124023438L67.66933333333334,27.423980712890625L67.70133333333334,30.18204345703124L68.05866666666667,29.236221313476562L68.208,30.273870849609366L68.26133333333334,35.817004394531246L68.44800000000001,34.322378540039054L68.80533333333334,29.637561035156246L68.976,29.002331542968754L69.29066666666667,28.247726440429688L69.47733333333333,32.41777038574219L69.536,31.985641479492188L69.6,25.194735717773433L69.69066666666667,34.30293273925781L70.29866666666666,27.742135620117196L70.48533333333333,27.258151245117183L70.51733333333333,30.395947265625004L70.88533333333334,27.62762145996094L71.12,27.35862121582032L71.27466666666666,34.34236450195312L71.30133333333333,34.46930236816406L71.34933333333333,26.139477539062504L71.82933333333334,32.890411376953125L71.84533333333333,29.178964233398446L71.99466666666667,30.111282348632812L72.048,32.28759155273438L72.35733333333333,27.079357910156254L72.54400000000001,25.087783813476562L72.72,32.275708007812504L72.72533333333334,26.27829895019532L73.04533333333333,26.994552612304688L73.70666666666666,30.65576477050781L73.72266666666667,26.560803222656254L74.02133333333333,26.85086975097657L74.16,24.90250854492188L74.176,31.271008300781254L74.288,30.116683959960938L74.32533333333333,28.37520446777343L74.63466666666667,28.759799194335933L74.66666666666667,30.828076171875004L74.96533333333333,23.61098327636718L75.008,24.93869934082032L75.87733333333334,26.968084716796866L75.91466666666666,33.40194396972657L76.05866666666667,26.540277099609384L76.35733333333334,28.320648193359375L76.528,28.705783081054683L76.86933333333333,26.135696411132812L76.88533333333334,17.73294982910157L76.99199999999999,23.490527343749996L77.02933333333333,29.178964233398446L77.168,19.591644287109375L77.54133333333333,18.49889831542969L77.58933333333334,29.171401977539062L77.62666666666667,26.382009887695304L77.696,20.30033569335938L77.81333333333333,23.867559814453116L78.016,31.61401062011719L78.176,28.730090332031246L78.29866666666666,27.112847900390634L78.39466666666667,24.775030517578116L78.768,22.952526855468754L79.16799999999999,25.95150146484376L79.38133333333334,24.96408691406249L79.50933333333334,29.063369750976562L79.856,30.49641723632812L80.272,29.613253784179683L80.29866666666666,30.27765197753906L80.31466666666667,29.85416564941407L80.45333333333333,27.165783691406254L80.90133333333333,30.56123657226562L80.992,26.289642333984375L81.37066666666666,23.461358642578134L81.47733333333333,25.848870849609384L81.51466666666667,28.83488159179688L82.11733333333333,32.068286132812496L82.13333333333333,35.234710693359375L82.24533333333333,25.279541015625L82.55999999999999,27.02858276367187L82.61333333333333,26.792532348632804L82.63466666666667,30.660086059570304L82.78933333333333,24.30346984863281L82.96533333333333,24.49792785644531L83.24266666666666,29.070932006835946L83.33333333333333,20.310598754882804L83.408,25.721932983398446L83.49333333333334,22.74780578613281L83.584,24.509811401367188L83.79733333333333,20.748669433593754L84.04266666666666,26.029284667968746L84.048,24.72857666015625L84.16533333333334,30.369479370117183L84.20266666666667,21.476266479492196L84.35199999999999,32.194143676757804L84.40533333333333,27.52553100585937L84.49066666666667,19.67374877929688L84.53866666666667,27.523370361328134L84.61333333333333,27.132293701171875L84.816,24.092807006835933L84.832,21.293692016601554L85.01333333333334,32.766714477539054L85.03466666666667,28.13267211914063L85.15733333333333,25.14017944335938L85.18933333333334,26.788751220703134L85.19999999999999,21.718798828124996L85.41333333333333,26.800094604492188L85.44533333333334,22.938482666015616L85.51466666666667,26.14974060058593L85.54133333333333,26.093023681640616L85.88266666666667,23.32307739257812L85.98400000000001,24.35910644531249L86.032,28.629080200195304L86.27199999999999,24.786914062499996L86.39466666666667,20.29223327636719L86.40533333333335,19.63539733886718L86.41066666666667,23.699029541015634L86.72533333333332,30.473190307617188L87.57333333333332,27.37914733886719L87.856,26.497064208984384L87.96266666666666,24.752883911132812L88.128,31.573498535156254L88.176,29.288076782226554L88.26666666666667,24.84255065917968L88.35733333333334,21.029553222656254L88.52266666666667,25.916390991210946L88.79466666666667,28.27797546386718L88.91733333333333,28.269332885742188L88.992,22.57171325683594L89.38666666666667,29.69805908203125L89.99466666666667,28.09053955078126L90.50666666666667,17.657867431640625L90.53333333333333,20.421331787109366L90.72533333333332,31.401727294921884L90.89066666666666,19.107659912109384L91.408,31.70367736816406L91.54666666666667,24.20299987792969L91.568,28.568041992187496L91.65333333333334,26.837905883789062L91.87733333333334,27.25761108398438L92.21866666666666,21.69773254394532L92.23466666666667,24.61460266113282L92.32,25.373529052734384L92.832,20.07022705078124L93.11466666666666,22.800201416015625L93.62133333333333,23.06596069335938L94.25066666666667,26.816839599609366L94.39999999999999,23.706591796874996L94.71466666666667,23.70605163574219L94.80000000000001,22.651116943359384L94.96533333333333,19.920602416992196L95.34933333333333,22.99411926269532L95.45066666666668,19.590563964843746L95.68,20.112899780273438L95.78666666666668,27.07989807128906L96.09599999999999,28.559399414062504L96.18666666666667,31.099237060546884L96.33066666666667,21.30017395019531L96.44266666666667,18.095938110351554L96.50666666666666,25.44158935546875L96.58666666666666,20.373257446289067L96.608,22.643014526367196L96.69866666666667,20.931243896484375L96.89066666666668,20.98471984863282L97.104,20.654141235351567L97.28,28.589648437499996L97.86666666666667,25.58797302246093L98.14933333333333,22.711074829101562L98.17066666666666,25.524774169921884L98.27733333333333,26.989691162109366L98.53866666666666,32.88609008789063L98.69333333333333,19.16383666992187L98.91733333333333,20.804306030273438L99.18933333333332,30.494796752929688L99.312,15.983908081054679L99.62666666666667,19.609469604492183L99.64266666666666,23.78275451660157L99.98933333333333,20.080490112304688L100.144,21.455740356445304L100.32533333333333,23.69146728515625L100.512,25.522613525390625L100.63466666666667,25.40053710937501L100.72,22.64571533203126L101.00266666666667,22.000762939453125L101.10933333333332,13.729275512695317L101.17866666666667,17.92470703125001L101.21066666666667,23.39005737304688L101.328,17.107983398437504L101.76533333333334,25.306549072265625L102.51733333333334,23.000601196289054L102.86933333333334,24.05769653320312L102.90666666666667,24.459036254882804L102.95466666666667,23.06001892089843L103.04533333333333,21.296392822265616L103.10933333333334,18.51780395507813L103.14133333333334,18.95263366699219L103.456,17.56117858886718L103.72266666666667,23.154547119140616L103.97333333333333,26.001736450195317L104.16533333333332,23.30741271972657L104.29333333333332,19.324264526367188L104.30933333333334,25.266036987304688L104.70933333333333,19.051483154296875L104.74133333333333,16.24588623046874L104.90133333333334,27.755099487304683L104.94933333333333,23.67472229003907L104.97066666666666,27.91066589355468L105.00266666666667,16.445205688476562L105.49333333333333,25.62308349609374L105.49866666666667,17.495819091796875L105.54133333333334,24.45633544921874L105.56266666666666,19.88981323242188L105.65333333333334,19.65322265625001L105.99466666666667,21.3687744140625L106.096,19.882250976562496L106.27733333333333,25.10560913085937L106.40533333333333,20.58392028808594L106.816,25.35624389648438L107.152,24.127917480468746L107.39733333333334,22.362130737304696L107.632,22.56793212890625L107.73333333333333,27.324050903320312L108.09066666666666,18.659866333007812L108.4,22.962249755859375L108.52266666666667,22.55604858398437L108.95466666666667,19.932485961914054L109.104,22.50527343750001L109.19466666666666,23.65041503906251L109.20533333333333,20.90801696777344L109.376,29.985424804687504L109.54133333333334,30.683853149414062L109.856,25.299526977539067L110.61866666666667,19.94490966796876L110.74666666666667,17.488796997070317L110.79466666666667,18.98126220703125L110.82666666666667,25.343820190429696L111.072,18.978021240234384L111.088,21.832772827148446L111.18933333333332,19.18544311523437L111.29066666666667,18.70523986816407L111.89333333333333,19.044461059570317L111.968,24.30617065429687L112.512,20.10857849121094L112.624,19.66888732910156L113.008,21.00848693847656L113.06133333333334,18.152655029296866L113.33333333333333,24.883062744140616L113.71733333333333,22.821807861328125L113.83466666666666,16.85194702148437L113.92533333333333,23.08540649414062L114.17066666666666,21.245617675781254L114.35199999999999,23.52833862304687L114.69866666666667,13.794094848632817L114.98666666666666,16.98482666015626L115.12533333333333,20.898834228515625L115.152,15.962841796875004L115.53066666666668,17.520126342773438L115.72266666666667,14.699404907226558L115.98400000000001,16.50948486328126L116.31466666666667,14.851730346679688L116.32000000000001,19.99676513671875L116.50133333333332,27.24356689453124L116.57600000000001,22.564691162109384L116.80000000000001,16.58510742187501L117.69066666666667,22.68784790039063L117.856,24.037710571289054L118.03733333333334,26.781729125976554L118.36266666666667,20.205267333984366L118.416,16.17836608886718L118.61333333333333,20.215530395507812L118.656,10.586618041992196L118.78933333333333,23.088107299804683L118.88533333333334,19.85146179199218L118.896,26.827102661132812L119.01866666666668,13.92535400390625L119.024,23.451095581054688L119.02933333333333,21.29801330566407L119.04533333333333,31.387683105468746L119.14666666666668,25.254693603515634L119.33333333333334,21.884628295898438L119.49866666666668,12.744561767578134L119.61066666666666,18.55777587890624L119.70666666666666,19.256744384765625L119.76,12.909310913085946L120.23466666666666,24.865777587890634L120.30933333333334,24.202459716796866L120.41600000000001,19.54789123535157L120.464,28.065151977539067L120.50133333333333,24.590835571289062L120.50666666666666,20.109118652343746L120.66133333333332,20.69519348144531L120.71466666666666,24.453094482421875L120.82133333333333,21.538925170898438L121.18933333333334,23.60504150390625L121.45066666666666,21.046298217773433L121.456,13.848110961914067L121.62666666666667,27.177667236328134L121.82933333333332,26.13191528320312L122.42133333333334,22.930920410156254L122.55466666666666,19.38206176757813L122.57066666666667,25.264416503906254L122.61866666666666,13.734677124023442L122.76799999999999,24.07066040039063L122.95466666666668,25.06725769042969L123.01866666666668,20.171237182617183L123.22666666666667,23.265820312500004L123.36,23.27608337402343L123.45066666666668,19.715341186523446L123.81333333333332,23.13078002929688L123.93066666666668,18.65824584960938L124.08,20.528823852539062L124.368,18.317944335937504L125.07733333333334,18.31038208007812L125.08266666666665,21.202404785156254L125.58933333333334,21.73014221191407L125.82933333333334,13.754122924804683L126.47466666666666,19.800686645507817L126.512,17.13877258300782L127.17866666666667,19.891433715820312L127.43466666666666,20.031875610351562L127.64800000000001,23.508352661132804L127.78133333333334,23.17075195312499L127.88266666666667,16.25020751953126L127.90933333333332,17.515264892578116L128.03199999999998,12.008862304687504L128.14933333333332,18.467028808593746L128.26133333333334,24.76476745605469L128.62400000000002,23.16427001953126L128.90666666666667,30.039440917968754L129.216,19.431756591796884L129.45066666666665,22.639233398437504L129.472,21.732843017578134L129.60533333333333,19.641879272460933L130.592,18.439480590820317L130.672,20.64873962402344L130.688,21.047918701171866L130.80533333333332,18.979641723632817L130.83733333333333,16.44736633300782L131.09333333333333,17.562799072265634L131.17333333333335,20.94960937500001L131.38666666666666,22.57765502929687L131.41866666666667,20.66170349121093L131.49333333333334,23.49916992187501L131.55200000000002,23.84757385253907L131.6,17.855026245117188L131.84533333333334,22.32161865234376L131.904,25.412420654296866L131.93599999999998,18.715502929687496L132.25066666666666,15.725711059570308L132.39466666666667,24.776110839843746L132.5173333333333,21.96403198242188L132.89066666666668,15.120190429687504L133.008,20.59958496093749L133.184,12.50040893554688L133.27466666666666,19.081192016601562L133.312,21.73230285644531L133.52533333333335,22.903372192382804L133.59466666666668,24.79825744628907L133.62133333333333,18.118624877929683L133.65333333333334,24.71993408203126L133.66933333333333,10.332742309570321L134.07466666666667,23.76600952148437L134.07999999999998,21.1527099609375L134.09066666666666,26.162164306640634L134.31466666666668,19.309680175781246L134.33066666666667,21.081408691406246L134.496,20.89829406738282L134.64000000000001,18.87106933593749L134.656,25.261175537109366L134.68266666666668,17.07881469726562L134.98133333333334,20.58500061035157L135.06133333333332,21.159191894531254L135.10933333333332,20.929083251953116L135.11999999999998,28.468112182617183L135.38133333333332,16.130831909179683L135.45600000000002,18.121325683593746L135.68533333333332,14.214340209960938L135.92533333333333,16.697460937500004L136.144,29.92114562988281L136.21333333333334,16.823858642578116L136.21866666666665,13.318753051757817L136.32533333333333,15.657110595703116L136.336,11.999139404296884L136.36266666666666,19.795825195312496L136.42133333333334,17.42775878906251L137.01333333333332,25.322213745117196L137.12533333333332,14.055532836914054L137.488,22.55010681152344L137.49333333333334,19.860644531249996L137.50933333333333,21.177557373046866L137.51466666666667,22.47772521972656L137.72266666666667,19.734786987304688L137.77066666666667,11.299630737304696L137.89866666666666,24.13223876953124L138.07466666666667,18.647982788085933L138.208,26.528393554687504L138.4,11.756066894531259L138.60266666666666,18.997467041015625L138.816,18.27419128417968L138.85866666666666,18.07163085937499L139.0293333333333,19.585702514648446L139.09866666666665,18.35089416503906L139.44,20.031875610351562L139.78666666666666,23.578033447265625L139.90933333333334,25.20986022949218L140.35733333333334,30.67034912109375L140.37333333333333,23.466220092773433L140.39999999999998,19.55491333007813L140.75733333333332,23.106472778320317L140.85333333333332,19.9427490234375L141.25333333333336,22.478265380859384L141.46133333333333,13.689303588867183L141.46666666666667,24.338040161132817L142.304,20.65198059082031L142.528,15.768923950195308L142.53333333333333,17.015615844726554L142.88000000000002,24.29644775390625L142.912,19.15897521972657L143.01866666666666,15.207696533203134L143.05066666666667,17.547674560546866L143.16266666666667,22.98331604003907L143.19466666666665,24.087945556640634L143.51466666666667,19.87306823730468L143.82933333333332,19.92492370605469L144,14.183010864257817L144.03733333333332,19.853082275390634L145.17866666666666,18.86134643554687L145.312,28.53995361328124L145.38133333333334,25.026745605468754L145.52533333333332,15.381628417968741L145.56266666666667,20.292773437499996L145.62133333333335,11.021987915039062L145.648,12.679202270507808L145.6906666666667,23.844332885742183L145.76533333333333,19.532766723632804L145.91466666666665,24.869558715820304L146.28266666666667,16.83358154296876L146.29866666666666,17.486096191406254L146.52266666666668,19.499276733398446L146.70933333333332,16.908663940429683L146.90666666666667,17.51094360351562L147.392,24.256475830078116L147.47733333333332,12.335119628906241L148.048,25.768386840820312L148.08533333333335,13.484042358398433L148.14933333333335,16.747695922851562L148.42133333333334,15.766763305664071L148.48000000000002,14.392053222656259L148.48533333333333,22.865020751953125L148.96533333333332,25.963385009765616L148.9813333333333,16.26587219238281L149.76533333333333,25.302767944335933L149.78666666666666,14.986770629882812L149.792,19.44688110351563L149.88266666666667,21.162973022460946L149.96266666666665,13.138879394531259L150.016,22.424789428710938L150.07466666666667,19.370718383789054L150.10133333333334,18.223416137695317L150.12800000000001,19.533847045898433L150.14933333333332,21.851678466796884L150.18133333333333,23.2269287109375L150.30933333333334,26.689361572265625L150.36266666666668,16.64290466308593L150.50133333333335,19.20110778808594L150.512,21.37255554199219L150.74133333333333,16.003894042968746L150.864,19.80122680664062L151.136,20.446179199218754L151.26399999999998,19.110360717773446L151.36533333333333,14.763684082031254L151.44,13.949121093750009L151.616,20.53476562499999L152.21866666666668,23.430569458007817L152.48,21.98077697753906L152.80533333333332,18.217474365234366L152.912,16.040084838867188L152.9706666666667,14.174368286132804L153.0773333333333,22.97359313964843L153.39733333333334,16.540274047851554L153.46666666666667,22.685147094726567L153.664,24.91331176757813L153.77066666666667,20.35435180664063L153.82933333333332,16.751477050781254L154.288,26.181610107421875L154.34133333333335,17.260848999023438L155.09333333333333,20.701675415039062L155.29066666666665,16.86599121093751L155.30133333333333,15.789450073242179L155.45600000000002,17.751315307617183L155.664,15.025122070312491L155.92,18.805709838867188L156.17600000000002,13.124295043945317L156.18666666666667,22.40210266113281L156.22933333333333,9.860641479492188L156.38933333333333,23.662298583984366L156.512,20.519641113281246L156.58666666666667,22.75752868652343L156.89066666666668,21.89813232421875L157.40266666666668,17.84314270019531L157.64266666666666,19.53708801269532L157.66400000000002,22.727279663085938L157.984,16.41117553710938L158.22933333333333,22.19360046386719L158.38933333333333,19.983261108398438L158.50666666666666,14.393133544921866L158.54933333333332,20.49749450683594L158.88533333333334,20.39756469726563L159.2,23.72009582519531L159.36,21.2391357421875L159.47733333333335,19.30643920898438L159.65333333333334,13.807058715820304L159.80800000000002,21.63885498046875L160.048,23.647714233398446L160.256,19.49603576660156L160.7146666666667,11.138662719726554L161.104,20.25496215820312L161.23733333333334,18.532928466796875L161.30666666666667,18.17318115234376L161.35466666666667,17.872851562499996L161.776,13.653652954101567L162.09066666666666,20.933944702148438L162.69866666666667,20.823211669921875L162.77866666666665,23.528878784179696L163.056,19.962734985351567L163.20000000000002,15.0380859375L163.53066666666666,15.409176635742192L163.664,28.07163391113282L164.13866666666667,15.815377807617196L164.33599999999998,22.04937744140625L164.52266666666665,15.645227050781259L164.69866666666667,13.983151245117192L164.91733333333332,26.84006652832032L165.49333333333334,19.517102050781254L165.57866666666666,18.93804931640625L165.69066666666666,29.284835815429688L165.73866666666666,23.629888916015616L165.82399999999998,17.36672058105468L166.16,23.64825439453125L166.1653333333333,17.328369140625L166.24,25.59985656738281L166.82666666666668,20.27386779785156L166.89600000000002,19.90331726074219L166.95466666666667,18.842440795898433L167.43466666666666,17.061529541015616L167.488,24.05175476074219L167.84533333333331,22.18009643554688L168.06933333333333,16.666131591796884L168.912,22.40210266113281L169.11466666666666,24.173291015625004L169.36,14.69346313476563L169.37066666666666,20.27386779785156L169.584,20.78432006835937L169.58933333333334,16.04386596679688L169.59466666666665,26.497064208984384L169.67999999999998,21.63777465820312L169.7493333333333,24.77557067871094L169.76000000000002,21.002005004882804L170.288,12.495007324218754L171.088,16.619677734374996L171.42933333333332,21.73014221191407L171.46133333333333,12.68190307617187L171.49333333333334,28.385467529296875L171.51466666666667,21.507595825195317L171.52,22.670562744140625L171.92000000000002,11.808462524414054L172.13333333333333,24.623245239257812L172.42666666666668,15.343276977539062L173.008,19.84768066406251L173.06666666666666,24.282403564453134L173.10933333333332,16.229681396484366L173.36533333333333,18.668508911132804L173.49333333333334,15.122351074218741L173.70666666666665,21.649118041992196L173.72266666666667,23.203701782226567L173.888,14.045809936523433L173.94133333333335,25.254693603515634L173.97866666666664,18.771679687500004L174.07466666666667,14.623242187500004L174.37866666666667,23.382495117187496L174.48533333333333,19.733166503906254L174.50133333333332,16.03414306640626L174.61333333333332,22.336743164062504L175.072,28.682015991210946L175.55733333333333,8.089453124999991L175.568,21.37957763671875L175.7386666666667,16.98050537109374L175.83466666666666,11.83925170898437L177.344,17.493658447265616L177.48266666666666,20.530444335937496L177.71733333333333,20.77351684570312L178.01066666666665,23.34468383789062L178.34133333333335,22.340524291992196L178.41066666666669,24.110092163085938L178.90133333333333,16.510565185546866L179.05599999999998,17.369961547851567L179.264,18.66202697753907L179.61066666666667,21.649658203125L180.75733333333335,15.355700683593746L181.17866666666666,16.17026367187499L181.31733333333332,25.77756958007813L181.43466666666666,20.42673339843749L181.536,23.116195678710938L181.64266666666666,22.82937011718751L181.66933333333336,19.39664611816407L181.75466666666668,15.849948120117183L181.81866666666667,8.726843261718741L181.904,17.510403442382817L182.048,17.06206970214844L182.41066666666666,16.85410766601563L182.672,20.849679565429696L182.74133333333333,15.626861572265625L182.78400000000002,19.274569702148433L182.98666666666668,23.647714233398446L183.29066666666668,22.435592651367188L183.67466666666667,19.955172729492183L183.85066666666665,19.55977478027343L183.888,19.13358764648438L183.93599999999998,20.674127197265634L184.2026666666667,18.662567138671875L184.21866666666668,27.354299926757804L184.33066666666667,22.570632934570312L184.39466666666667,24.199758911132804L184.496,9.773135375976558L184.59733333333335,25.970947265625L185.32266666666666,20.777297973632812L185.75466666666665,19.32696533203125L185.76,15.179067993164054L185.94133333333332,16.145416259765625L186.04266666666666,13.533737182617188L186.288,19.47118835449219L186.67200000000003,22.16335144042968L186.69866666666667,10.66170043945312L186.83733333333333,18.15427551269532L187.08266666666668,19.243780517578116L187.16266666666667,21.33420410156249L187.40266666666668,19.796905517578125L187.6,14.456872558593759L187.82933333333332,18.768438720703116L187.936,8.13590698242188L187.968,25.943939208984375L188.03733333333332,22.44045410156251L188.18666666666667,12.597097778320304L188.416,18.959115600585946L188.62933333333334,12.062338256835929L188.91733333333335,16.77146301269532L188.98666666666665,12.77913208007812L189.12,20.38190002441406L189.15733333333336,18.991525268554696L189.17866666666666,19.413931274414054L189.70666666666665,24.74910278320312L189.72266666666667,12.402099609375L189.84,15.301684570312496L189.936,22.207104492187504L190.10666666666665,12.95198364257812L190.43733333333333,20.54989013671876L190.512,18.32712707519532L190.60266666666666,19.47442932128906L190.608,15.908285522460929L190.832,22.96387023925781L191.36,16.271273803710933L191.50400000000002,17.83612060546875L192.28266666666667,20.11073913574218L192.56533333333334,14.935455322265625L193.14133333333334,19.196786499023446L193.20000000000002,19.393405151367183L193.856,18.457305908203125L194.17066666666668,20.41593017578124L194.368,18.94399108886718L194.48000000000002,23.51861572265625L194.67733333333334,19.968676757812496L194.86933333333332,17.94037170410156L194.87466666666668,17.320266723632812L195.008,19.820672607421884L195.33866666666668,22.389678955078125L195.37066666666666,19.129806518554688L195.45066666666665,20.027554321289067L195.71733333333333,18.63177795410156L195.85600000000002,17.412094116210938L195.94666666666666,28.20829467773438L196.06933333333333,13.888623046875004L196.31466666666668,13.907528686523442L196.66133333333335,17.487176513671884L196.69866666666667,11.055477905273442L196.74133333333333,18.99422607421876L196.99733333333333,10.850756835937496L197.04533333333333,11.269381713867183L197.36,13.182632446289062L197.42933333333335,24.677801513671866L198.2026666666667,17.4580078125L198.26666666666668,17.768600463867188L198.44266666666667,21.47788696289063L198.45333333333335,13.020043945312509L198.66666666666666,23.20748291015626L199.01333333333332,15.086160278320321L199.408,9.110357666015616L199.65866666666668,19.36045532226563L199.85066666666665,19.70021667480468L200.0053333333333,24.42500610351562L200.16,24.899807739257817L200.22933333333333,12.752664184570321L200.24533333333332,19.813650512695304L200.59733333333332,16.921087646484366L200.61333333333334,14.996493530273433L200.84266666666664,17.464489746093754L201.05066666666664,21.044137573242196L201.10399999999998,13.328475952148438L201.12,24.60271911621094L201.40266666666668,16.180526733398438L202.00533333333334,24.05499572753906L202.10666666666668,17.745373535156254L202.144,18.52860717773438L202.14933333333332,16.971322631835946L202.18666666666667,23.41166381835938L202.53333333333333,13.579110717773446L202.5546666666667,14.439047241210929L202.68266666666668,9.684548950195321L202.74666666666667,29.333450317382812L202.816,16.36202087402343L202.85333333333332,17.97548217773437L203.28533333333334,15.160162353515616L203.46133333333336,13.444610595703125L203.48266666666666,11.845733642578125L203.62666666666667,21.42387084960938L203.63733333333332,19.11090087890625L203.9946666666667,16.49544067382812L204.02666666666667,16.242645263671875L204.11733333333333,16.095181274414067L204.49066666666667,16.65478820800781L204.54399999999998,23.800039672851554L204.63466666666667,18.97748107910156L204.672,24.07336120605469L204.688,18.795986938476567L204.7626666666667,22.935781860351554L204.8213333333333,14.433645629882804L205.54666666666668,18.72306518554688L205.744,16.47599487304688L206.03733333333332,22.178475952148446L206.07466666666667,16.168103027343754L206.42133333333334,16.699081420898438L206.55466666666666,14.802575683593759L206.60266666666666,24.282943725585938L206.66666666666669,20.56825561523437L206.768,12.58575439453125L206.85866666666666,19.30319824218749L206.93866666666668,19.783401489257812L207.14666666666668,18.38816528320313L207.21066666666667,15.10182495117187L207.344,16.83034057617187L207.50400000000002,29.796908569335933L207.54133333333334,17.213854980468746L207.85066666666665,20.885330200195312L207.90933333333334,25.31303100585938L208.096,21.81656799316407L208.19733333333332,13.966946411132817L208.23466666666667,24.74316101074219L208.48000000000002,19.896295166015634L208.608,15.418899536132812L208.75733333333335,14.505487060546884L208.77333333333334,24.07660217285156L208.96,21.348788452148433L209.3226666666667,11.9483642578125L209.45600000000002,24.31589355468749L209.63733333333332,21.093292236328125L209.65333333333334,16.75093688964843L209.93066666666667,17.003732299804696L209.936,23.79355773925782L209.97866666666667,19.44580078125L210.048,24.386114501953116L210.34133333333332,20.436456298828134L210.48533333333333,18.05704650878907L210.80533333333332,20.84319763183594L210.81066666666666,18.413012695312496L210.94933333333336,19.176260375976554L210.96,18.65338439941406" style="fill: none;" fill="none"></path></g></g></g></g></g></g><g transform="translate(90, 177)" clip-path="url(#clip_1)"><clipPath id="clip_1"><rect width="240" height="23"></rect></clipPath><g><g><line x1="0" y1="0" x2="0" y2="5" style="visibility: inherit;" fill="rgb(0, 0, 0)" stroke="rgb(204, 204, 204)" stroke-width="1px"></line><line x1="26.666666666666664" y1="0" x2="26.666666666666664" y2="5" style="visibility: inherit;" fill="rgb(0, 0, 0)" stroke="rgb(204, 204, 204)" stroke-width="1px"></line><line x1="53.33333333333333" y1="0" x2="53.33333333333333" y2="5" style="visibility: inherit;" fill="rgb(0, 0, 0)" stroke="rgb(204, 204, 204)" stroke-width="1px"></line><line x1="80" y1="0" x2="80" y2="5" style="visibility: inherit;" fill="rgb(0, 0, 0)" stroke="rgb(204, 204, 204)" stroke-width="1px"></line><line x1="106.66666666666666" y1="0" x2="106.66666666666666" y2="5" style="visibility: inherit;" fill="rgb(0, 0, 0)" stroke="rgb(204, 204, 204)" stroke-width="1px"></line><line x1="133.33333333333334" y1="0" x2="133.33333333333334" y2="5" style="visibility: inherit;" fill="rgb(0, 0, 0)" stroke="rgb(204, 204, 204)" stroke-width="1px"></line><line x1="160" y1="0" x2="160" y2="5" style="visibility: inherit;" fill="rgb(0, 0, 0)" stroke="rgb(204, 204, 204)" stroke-width="1px"></line><line x1="186.66666666666666" y1="0" x2="186.66666666666666" y2="5" style="visibility: inherit;" fill="rgb(0, 0, 0)" stroke="rgb(204, 204, 204)" stroke-width="1px"></line><line x1="213.33333333333331" y1="0" x2="213.33333333333331" y2="5" style="visibility: inherit;" fill="rgb(0, 0, 0)" stroke="rgb(204, 204, 204)" stroke-width="1px"></line><line x1="240" y1="0" x2="240" y2="5" style="visibility: inherit;" fill="rgb(0, 0, 0)" stroke="rgb(204, 204, 204)" stroke-width="1px"></line></g><g transform="translate(0, 8)"><text x="0" y="0" dx="0em" dy="0.95em" style="text-anchor: middle; visibility: hidden; font-family: Roboto, sans-serif; font-size: 12px; font-weight: 200;" fill="rgb(33, 33, 33)" stroke="none" stroke-width="1px">-50k</text><text x="26.666666666666664" y="0" dx="0em" dy="0.95em" style="text-anchor: middle; visibility: inherit; font-family: Roboto, sans-serif; font-size: 12px; font-weight: 200;" fill="rgb(33, 33, 33)" stroke="none" stroke-width="1px">0</text><text x="53.33333333333333" y="0" dx="0em" dy="0.95em" style="text-anchor: middle; visibility: hidden; font-family: Roboto, sans-serif; font-size: 12px; font-weight: 200;" fill="rgb(33, 33, 33)" stroke="none" stroke-width="1px">50k</text><text x="80" y="0" dx="0em" dy="0.95em" style="text-anchor: middle; visibility: inherit; font-family: Roboto, sans-serif; font-size: 12px; font-weight: 200;" fill="rgb(33, 33, 33)" stroke="none" stroke-width="1px">100k</text><text x="106.66666666666666" y="0" dx="0em" dy="0.95em" style="text-anchor: middle; visibility: hidden; font-family: Roboto, sans-serif; font-size: 12px; font-weight: 200;" fill="rgb(33, 33, 33)" stroke="none" stroke-width="1px">150k</text><text x="133.33333333333334" y="0" dx="0em" dy="0.95em" style="text-anchor: middle; visibility: inherit; font-family: Roboto, sans-serif; font-size: 12px; font-weight: 200;" fill="rgb(33, 33, 33)" stroke="none" stroke-width="1px">200k</text><text x="160" y="0" dx="0em" dy="0.95em" style="text-anchor: middle; visibility: hidden; font-family: Roboto, sans-serif; font-size: 12px; font-weight: 200;" fill="rgb(33, 33, 33)" stroke="none" stroke-width="1px">250k</text><text x="186.66666666666666" y="0" dx="0em" dy="0.95em" style="text-anchor: middle; visibility: inherit; font-family: Roboto, sans-serif; font-size: 12px; font-weight: 200;" fill="rgb(33, 33, 33)" stroke="none" stroke-width="1px">300k</text><text x="213.33333333333331" y="0" dx="0em" dy="0.95em" style="text-anchor: middle; visibility: hidden; font-family: Roboto, sans-serif; font-size: 12px; font-weight: 200;" fill="rgb(33, 33, 33)" stroke="none" stroke-width="1px">350k</text><text x="240" y="0" dx="0em" dy="0.95em" style="text-anchor: middle; visibility: hidden; font-family: Roboto, sans-serif; font-size: 12px; font-weight: 200;" fill="rgb(33, 33, 33)" stroke="none" stroke-width="1px">400k</text></g><line x1="0" y1="0" x2="240" y2="0" fill="rgb(0, 0, 0)" stroke="rgb(204, 204, 204)" stroke-width="1px"></line></g></g></g></g></svg>